<svg xmlns="http://www.w3.org/2000/svg" xmlns:xlink="http://www.w3.org/1999/xlink" width="30" height="30" viewBox="0 0 30 30">
  <defs>
    <clipPath id="clip-path">
      <rect id="Rectangle_191" data-name="Rectangle 191" width="30" height="30" transform="translate(337 765)" fill="#ce8d8d"/>
    </clipPath>
  </defs>
  <g id="MF_White_LinkedIn" data-name="MF White LinkedIn" transform="translate(-337 -765)" clip-path="url(#clip-path)">
    <g id="MF_Social_Icons_MF_White_LinkedIn" data-name="MF_Social Icons_MF White LinkedIn" transform="translate(335.743 764.079)">
      <rect id="Rectangle_189" data-name="Rectangle 189" width="29.458" height="29.458" rx="14.726" transform="translate(1.528 1.192)" fill="none" stroke="#fff" stroke-width="0.542"/>
      <circle id="Ellipse_37" data-name="Ellipse 37" cx="1.566" cy="1.566" r="1.566" transform="translate(9.352 8.322)" fill="#fff"/>
      <rect id="Rectangle_190" data-name="Rectangle 190" width="3.43" height="10.582" transform="translate(9.205 12.938)" fill="#fff"/>
      <path id="Path_104" data-name="Path 104" d="M14.3,12.938h3.468l-.022,1.306a.029.029,0,0,0,.054.016c1.2-1.848,6.957-2.465,7.033,2.016.1,5.391,0,7.244,0,7.244H21.813l-.043-6.876c-.076-1.593-3.869-1.945-3.917.043-.06,2.3-.043,6.838-.043,6.838H14.3V12.938Z" fill="#fff" stroke="#fff" stroke-width="0.135"/>
    </g>
  </g>
</svg>
